<?xml version="1.0" encoding="UTF-8" standalone="no"?>
<svg
   xmlns:dc="http://purl.org/dc/elements/1.1/"
   xmlns:cc="http://creativecommons.org/ns#"
   xmlns:rdf="http://www.w3.org/1999/02/22-rdf-syntax-ns#"
   xmlns:svg="http://www.w3.org/2000/svg"
   xmlns="http://www.w3.org/2000/svg"
   xmlns:xlink="http://www.w3.org/1999/xlink"
   version="1.1"
   id="svg3663"
   height="238.37851"
   width="1239.2419">
  <defs
     id="defs3665" />
  <metadata
     id="metadata3669">
    <rdf:RDF>
      <cc:Work
         rdf:about="">
        <dc:format>image/svg+xml</dc:format>
        <dc:type
           rdf:resource="http://purl.org/dc/dcmitype/StillImage" />
        <dc:title />
      </cc:Work>
    </rdf:RDF>
  </metadata>
  <g
     transform="translate(121.37834,-366.08976)"
     id="layer1">
    <g
       transform="translate(-172.54365,298.92468)"
       id="g4559">
      <path
         id="path3672"
         d="M 126.6819,106.07844 A 13.819842,13.819842 0 0 1 112.86205,119.89828 13.819842,13.819842 0 0 1 99.042211,106.07844 13.819842,13.819842 0 0 1 112.86205,92.258595 13.819842,13.819842 0 0 1 126.6819,106.07844 Z"
         style="fill:#000000;fill-opacity:1;stroke:#999999"
         transform="translate(2.9358269,19.583638)" />
      <path
         id="path3674"
         d="M 126.6819,106.07844 A 13.819842,13.819842 0 0 1 112.86205,119.89828 13.819842,13.819842 0 0 1 99.042211,106.07844 13.819842,13.819842 0 0 1 112.86205,92.258595 13.819842,13.819842 0 0 1 126.6819,106.07844 Z"
         style="fill:#000000;fill-opacity:1;stroke:#999999"
         transform="translate(22.263923,174.68627)" />
      <path
         id="path3676"
         d="M 126.6819,106.07844 A 13.819842,13.819842 0 0 1 112.86205,119.89828 13.819842,13.819842 0 0 1 99.042211,106.07844 13.819842,13.819842 0 0 1 112.86205,92.258595 13.819842,13.819842 0 0 1 126.6819,106.07844 Z"
         style="fill:#000000;fill-opacity:1;stroke:#999999"
         transform="translate(78.058534,143.9462)" />
      <path
         id="path3678"
         d="M 126.6819,106.07844 A 13.819842,13.819842 0 0 1 112.86205,119.89828 13.819842,13.819842 0 0 1 99.042211,106.07844 13.819842,13.819842 0 0 1 112.86205,92.258595 13.819842,13.819842 0 0 1 126.6819,106.07844 Z"
         style="fill:#000000;fill-opacity:1;stroke:#999999"
         transform="translate(122.70557,-14.134487)" />
      <path
         id="path3680"
         d="M 126.6819,106.07844 A 13.819842,13.819842 0 0 1 112.86205,119.89828 13.819842,13.819842 0 0 1 99.042211,106.07844 13.819842,13.819842 0 0 1 112.86205,92.258595 13.819842,13.819842 0 0 1 126.6819,106.07844 Z"
         style="fill:#000000;fill-opacity:1;stroke:#999999"
         transform="translate(44.329176,166.31602)" />
      <path
         id="path3682"
         d="M 126.6819,106.07844 A 13.819842,13.819842 0 0 1 112.86205,119.89828 13.819842,13.819842 0 0 1 99.042211,106.07844 13.819842,13.819842 0 0 1 112.86205,92.258595 13.819842,13.819842 0 0 1 126.6819,106.07844 Z"
         style="fill:#000000;fill-opacity:1;stroke:#999999"
         transform="translate(-47.376901,39.11941)" />
      <path
         id="path3684"
         d="M 126.6819,106.07844 A 13.819842,13.819842 0 0 1 112.86205,119.89828 13.819842,13.819842 0 0 1 99.042211,106.07844 13.819842,13.819842 0 0 1 112.86205,92.258595 13.819842,13.819842 0 0 1 126.6819,106.07844 Z"
         style="fill:#000000;fill-opacity:1;stroke:#999999"
         transform="translate(106.03207,55.344196)" />
    </g>
    <g
       transform="translate(-201.26871,293.69145)"
       id="g4568">
      <use
         x="0"
         y="0"
         xlink:href="#path3672"
         id="use3686"
         transform="translate(368.52912,0)"
         width="1052.3622"
         height="744.09448"
         style="stroke:#999999" />
      <path
         id="use3688"
         d="M 126.6819,106.07844 A 13.819842,13.819842 0 0 1 112.86205,119.89828 13.819842,13.819842 0 0 1 99.042211,106.07844 13.819842,13.819842 0 0 1 112.86205,92.258595 13.819842,13.819842 0 0 1 126.6819,106.07844 Z"
         style="fill:#b3b3b3;fill-opacity:1;stroke:#999999"
         transform="translate(390.79304,174.68627)" />
      <use
         x="0"
         y="0"
         xlink:href="#path3676"
         id="use3690"
         transform="translate(368.52912,0)"
         width="1052.3622"
         height="744.09448"
         style="stroke:#999999" />
      <use
         x="0"
         y="0"
         xlink:href="#path3678"
         id="use3692"
         transform="translate(368.52912,0)"
         width="1052.3622"
         height="744.09448"
         style="stroke:#999999" />
      <path
         id="use3694"
         d="M 126.6819,106.07844 A 13.819842,13.819842 0 0 1 112.86205,119.89828 13.819842,13.819842 0 0 1 99.042211,106.07844 13.819842,13.819842 0 0 1 112.86205,92.258595 13.819842,13.819842 0 0 1 126.6819,106.07844 Z"
         style="fill:#b3b3b3;fill-opacity:1;stroke:#999999"
         transform="translate(412.8583,166.31602)" />
      <use
         x="0"
         y="0"
         xlink:href="#path3682"
         id="use3696"
         transform="translate(368.52912,0)"
         width="1052.3622"
         height="744.09448"
         style="stroke:#999999" />
      <use
         x="0"
         y="0"
         xlink:href="#path3684"
         id="use3698"
         transform="translate(368.52912,0)"
         width="1052.3622"
         height="744.09448"
         style="stroke:#999999" />
      <path
         id="path3781"
         d="m -489.49449,510.99466 a 33.943192,27.847969 0 0 1 -33.94319,27.84797 33.943192,27.847969 0 0 1 -33.94319,-27.84797 33.943192,27.847969 0 0 1 33.94319,-27.84797 33.943192,27.847969 0 0 1 33.94319,27.84797 z"
         style="fill:#ff8737;fill-opacity:0.5642857;stroke:#999999;stroke-width:0.2;stroke-linecap:round;stroke-miterlimit:4;stroke-dasharray:none;stroke-dashoffset:5.76839972;stroke-opacity:1"
         transform="matrix(0.9322227,-0.36188512,0.36188512,0.9322227,816.86334,-389.06077)" />
    </g>
    <g
       transform="translate(-142.7866,293.69145)"
       id="g4578">
      <path
         id="use3700"
         d="M 126.6819,106.07844 A 13.819842,13.819842 0 0 1 112.86205,119.89828 13.819842,13.819842 0 0 1 99.042211,106.07844 13.819842,13.819842 0 0 1 112.86205,92.258595 13.819842,13.819842 0 0 1 126.6819,106.07844 Z"
         style="fill:#b3b3b3;fill-opacity:1;stroke:#999999"
         transform="translate(661.68163,19.583638)" />
      <use
         x="0"
         y="0"
         xlink:href="#use3688"
         id="use3702"
         transform="translate(290.21668,0)"
         width="1052.3622"
         height="744.09448"
         style="fill:#b3b3b3;fill-opacity:1;stroke:#999999" />
      <use
         x="0"
         y="0"
         xlink:href="#use3690"
         id="use3704"
         transform="translate(290.21668,0)"
         width="1052.3622"
         height="744.09448"
         style="stroke:#999999" />
      <use
         x="0"
         y="0"
         xlink:href="#use3692"
         id="use3706"
         transform="translate(290.21668,0)"
         width="1052.3622"
         height="744.09448"
         style="stroke:#999999" />
      <use
         x="0"
         y="0"
         xlink:href="#use3694"
         id="use3708"
         transform="translate(290.21668,0)"
         width="1052.3622"
         height="744.09448"
         style="fill:#b3b3b3;fill-opacity:1;stroke:#999999" />
      <path
         id="use3710"
         d="M 126.6819,106.07844 A 13.819842,13.819842 0 0 1 112.86205,119.89828 13.819842,13.819842 0 0 1 99.042211,106.07844 13.819842,13.819842 0 0 1 112.86205,92.258595 13.819842,13.819842 0 0 1 126.6819,106.07844 Z"
         style="fill:#b3b3b3;fill-opacity:1;stroke:#999999"
         transform="translate(611.3689,39.11941)" />
      <use
         x="0"
         y="0"
         xlink:href="#use3698"
         id="use3712"
         transform="translate(290.21668,0)"
         width="1052.3622"
         height="744.09448"
         style="stroke:#999999" />
      <path
         id="path4551"
         d="m -489.49449,510.99466 a 33.943192,27.847969 0 0 1 -33.94319,27.84797 33.943192,27.847969 0 0 1 -33.94319,-27.84797 33.943192,27.847969 0 0 1 33.94319,-27.84797 33.943192,27.847969 0 0 1 33.94319,27.84797 z"
         style="fill:#ff8737;fill-opacity:0.5642857;stroke:#999999;stroke-width:0.14896557;stroke-linecap:round;stroke-miterlimit:4;stroke-dasharray:none;stroke-dashoffset:5.76839972;stroke-opacity:1"
         transform="matrix(1.2773986,-0.71514316,0.76299298,0.98395638,1028.1658,-742.25577)" />
      <use
         x="0"
         y="0"
         xlink:href="#path3781"
         id="use4553"
         transform="translate(288.6788,0)"
         width="1052.3622"
         height="744.09448" />
    </g>
    <g
       transform="translate(-66.175868,288.46565)"
       id="g4589">
      <use
         x="0"
         y="0"
         xlink:href="#use3700"
         id="use3732"
         transform="translate(275.40621,0)"
         width="1052.3622"
         height="744.09448"
         style="fill:#b3b3b3;fill-opacity:1;stroke:#999999" />
      <use
         x="0"
         y="0"
         xlink:href="#use3702"
         id="use3734"
         transform="translate(275.40621,0)"
         width="1052.3622"
         height="744.09448"
         style="fill:#b3b3b3;fill-opacity:1;stroke:#999999" />
      <path
         id="use3736"
         d="M 126.6819,106.07844 A 13.819842,13.819842 0 0 1 112.86205,119.89828 13.819842,13.819842 0 0 1 99.042211,106.07844 13.819842,13.819842 0 0 1 112.86205,92.258595 13.819842,13.819842 0 0 1 126.6819,106.07844 Z"
         style="fill:#b3b3b3;fill-opacity:1;stroke:#999999"
         transform="translate(1012.2105,143.9462)" />
      <use
         x="0"
         y="0"
         xlink:href="#use3706"
         id="use3738"
         transform="translate(275.40621,0)"
         width="1052.3622"
         height="744.09448"
         style="stroke:#999999" />
      <use
         x="0"
         y="0"
         xlink:href="#use3708"
         id="use3740"
         transform="translate(275.40621,0)"
         width="1052.3622"
         height="744.09448"
         style="fill:#b3b3b3;fill-opacity:1;stroke:#999999" />
      <use
         x="0"
         y="0"
         xlink:href="#use3710"
         id="use3742"
         transform="translate(275.40621,0)"
         width="1052.3622"
         height="744.09448"
         style="fill:#b3b3b3;fill-opacity:1;stroke:#999999" />
      <use
         x="0"
         y="0"
         xlink:href="#use3712"
         id="use3744"
         transform="translate(275.40621,0)"
         width="1052.3622"
         height="744.09448"
         style="stroke:#999999" />
      <use
         x="0"
         y="0"
         xlink:href="#use4553"
         id="use4555"
         transform="matrix(1.5349155,-0.44809788,0.45474003,1.5124958,-261.11199,209.14353)"
         width="1052.3622"
         height="744.09448" />
      <use
         x="0"
         y="0"
         xlink:href="#path4551"
         id="use4557"
         transform="translate(272.08806,0)"
         width="1052.3622"
         height="744.09448" />
    </g>
    <path
       id="path4600"
       d="m 147.88477,385.7346 c 0,199.08883 0,199.08883 0,199.08883"
       style="fill:none;stroke:#999999;stroke-width:1px;stroke-linecap:butt;stroke-linejoin:miter;stroke-opacity:1" />
    <use
       height="744.09448"
       width="1052.3622"
       transform="translate(339.80407,0)"
       id="use4602"
       xlink:href="#path4600"
       y="0"
       x="0" />
    <use
       height="744.09448"
       width="1052.3622"
       transform="translate(348.69879,0)"
       id="use4604"
       xlink:href="#use4602"
       y="0"
       x="0" />
  </g>
</svg>
