<?xml version="1.0" encoding="UTF-8" standalone="no"?>
<svg
   xmlns:dc="http://purl.org/dc/elements/1.1/"
   xmlns:cc="http://creativecommons.org/ns#"
   xmlns:rdf="http://www.w3.org/1999/02/22-rdf-syntax-ns#"
   xmlns:svg="http://www.w3.org/2000/svg"
   xmlns="http://www.w3.org/2000/svg"
   version="1.1"
   id="svg2"
   viewBox="0 0 567 466"
   height="466"
   width="567">
  <metadata
     id="metadata386">
    <rdf:RDF>
      <cc:Work
         rdf:about="">
        <dc:format>image/svg+xml</dc:format>
        <dc:type
           rdf:resource="http://purl.org/dc/dcmitype/StillImage" />
      </cc:Work>
    </rdf:RDF>
  </metadata>
  <title
     id="title4">
/var/www/sharing/dralph/partis/cf-data-adaptive/j_5p_del/plots/IGHJ4_star_02-j_5p_del-mean-bins.svg
</title>
  <desc
     id="desc6">
Creator: ROOT Version 5.34/18
CreationDate: Mon Feb 23 15:08:35 2015</desc>
  <defs
     id="defs8" />
  <rect
     id="rect10"
     fill="white"
     height="466"
     width="567"
     y="0"
     x="0" />
  <rect
     id="rect12"
     stroke="black"
     fill="none"
     height="359"
     width="443"
     y="37"
     x="79" />
  <rect
     id="rect14"
     stroke="black"
     fill="none"
     height="359"
     width="443"
     y="37"
     x="79" />
  <path
     id="path16"
     stroke-width="3"
     stroke="black"
     fill="none"
     d="M79,396h 443" />
  <g
     id="text18"
     style="font-weight:bold;font-size:32px;font-family:Times;fill:#000000">
    <path
       id="path389"
       style="font-weight:bold;font-size:32px;font-family:Times;fill:#000000"
       d="m 463.672,441.352 c 0,-4.416 -2.464,-7.488 -6.016,-7.488 -1.536,0 -2.72,0.544 -3.904,1.792 l 0,-8.288 -6.208,0 0,0.768 c 1.472,0.288 1.76,0.576 1.76,1.856 l 0,19.424 0.384,0 2.528,-1.792 c 1.472,1.312 2.624,1.824 4.224,1.824 4.256,0 7.232,-3.328 7.232,-8.096 z m -4.704,0.576 c 0,4.416 -0.96,6.496 -3.008,6.496 -1.344,0 -2.208,-0.992 -2.208,-2.528 l 0,-8.416 c 0.544,-1.376 1.184,-1.888 2.24,-1.888 1.984,0 2.976,2.144 2.976,6.336 z" />
    <path
       id="path391"
       style="font-weight:bold;font-size:32px;font-family:Times;fill:#000000"
       d="m 480.4285,447.624 -0.48,-0.672 -0.32,0.32 c -0.096,0.096 -0.192,0.128 -0.352,0.128 -0.448,0 -0.672,-0.256 -0.672,-0.8 l 0,-8.352 c 0,-2.72 -2.432,-4.384 -6.336,-4.384 -3.616,0 -6.048,1.632 -6.048,4.032 0,1.344 0.768,2.112 2.08,2.112 1.28,0 2.176,-0.768 2.176,-1.856 0,-0.448 -0.16,-0.864 -0.576,-1.376 -0.288,-0.32 -0.384,-0.512 -0.384,-0.704 0,-0.672 0.864,-1.184 2.016,-1.184 1.888,0 2.688,0.864 2.688,2.816 l 0,2.336 c -3.744,1.152 -5.248,1.728 -6.464,2.528 -1.44,0.96 -2.144,2.08 -2.144,3.488 0,1.952 1.472,3.392 3.52,3.392 1.856,0 3.328,-0.64 5.088,-2.24 0.352,1.632 1.056,2.24 2.624,2.24 1.376,0 2.368,-0.512 3.584,-1.824 z m -6.24,-1.824 c -0.864,0.992 -1.504,1.376 -2.272,1.376 -0.96,0 -1.632,-0.864 -1.632,-2.144 0,-1.856 1.344,-3.168 3.904,-3.872 l 0,4.64 z" />
    <path
       id="path393"
       style="font-weight:bold;font-size:32px;font-family:Times;fill:#000000"
       d="m 492.3645,444.584 c 0,-2.272 -1.216,-3.68 -4.416,-4.992 -2.176,-0.928 -3.072,-1.728 -3.072,-2.816 0,-1.056 0.896,-1.856 2.112,-1.856 0.864,0 1.696,0.352 2.4,1.024 0.672,0.64 1.024,1.248 1.504,2.624 l 0.8,0 0,-4.64 -0.704,0 c -0.192,0.48 -0.384,0.64 -0.8,0.64 -0.192,0 -0.48,-0.064 -0.992,-0.224 -1.024,-0.352 -1.76,-0.48 -2.496,-0.48 -2.912,0 -5.024,1.984 -5.024,4.672 0,2.112 1.312,3.584 4.544,4.96 2.208,0.96 3.072,1.76 3.072,2.784 0,1.248 -0.96,2.08 -2.4,2.08 -2.24,0 -3.712,-1.44 -4.384,-4.224 l -0.896,0 0,5.28 0.8,0 c 0.352,-0.672 0.544,-0.896 0.832,-0.896 0.16,0 0.416,0.064 0.736,0.192 0.928,0.384 2.56,0.736 3.456,0.736 2.912,0 4.928,-1.984 4.928,-4.864 z" />
    <path
       id="path395"
       style="font-weight:bold;font-size:32px;font-family:Times;fill:#000000"
       d="M 506.882,445.448 506.114,445 c -1.312,1.568 -2.272,2.144 -3.648,2.144 -1.216,0 -2.176,-0.544 -2.816,-1.632 -0.608,-1.024 -0.864,-2.112 -0.992,-4.352 l 8.064,0 c -0.192,-2.656 -0.672,-4.128 -1.664,-5.376 -1.024,-1.248 -2.528,-1.92 -4.32,-1.92 -4,0 -6.688,3.168 -6.688,7.84 0,4.672 2.624,7.744 6.592,7.744 2.592,0 4.16,-0.992 6.24,-4 z m -4.096,-5.472 -4.288,0 c 0.096,-3.84 0.672,-5.12 2.24,-5.12 0.928,0 1.504,0.512 1.76,1.504 0.16,0.608 0.224,1.504 0.288,3.136 l 0,0.48 z" />
    <path
       id="path397"
       style="font-weight:bold;font-size:32px;font-family:Times;fill:#000000"
       d="m 518.9895,444.584 c 0,-2.272 -1.216,-3.68 -4.416,-4.992 -2.176,-0.928 -3.072,-1.728 -3.072,-2.816 0,-1.056 0.896,-1.856 2.112,-1.856 0.864,0 1.696,0.352 2.4,1.024 0.672,0.64 1.024,1.248 1.504,2.624 l 0.8,0 0,-4.64 -0.704,0 c -0.192,0.48 -0.384,0.64 -0.8,0.64 -0.192,0 -0.48,-0.064 -0.992,-0.224 -1.024,-0.352 -1.76,-0.48 -2.496,-0.48 -2.912,0 -5.024,1.984 -5.024,4.672 0,2.112 1.312,3.584 4.544,4.96 2.208,0.96 3.072,1.76 3.072,2.784 0,1.248 -0.96,2.08 -2.4,2.08 -2.24,0 -3.712,-1.44 -4.384,-4.224 l -0.896,0 0,5.28 0.8,0 c 0.352,-0.672 0.544,-0.896 0.832,-0.896 0.16,0 0.416,0.064 0.736,0.192 0.928,0.384 2.56,0.736 3.456,0.736 2.912,0 4.928,-1.984 4.928,-4.864 z" />
  </g>
  <path
     id="path20"
     stroke-width="3"
     stroke="black"
     fill="none"
     d="M94,385v 11" />
  <path
     id="path22"
     stroke-width="3"
     stroke="black"
     fill="none"
     d="M124,391v 5" />
  <path
     id="path24"
     stroke-width="3"
     stroke="black"
     fill="none"
     d="M153,391v 5" />
  <path
     id="path26"
     stroke-width="3"
     stroke="black"
     fill="none"
     d="M183,391v 5" />
  <path
     id="path28"
     stroke-width="3"
     stroke="black"
     fill="none"
     d="M212,391v 5" />
  <path
     id="path30"
     stroke-width="3"
     stroke="black"
     fill="none"
     d="M242,385v 11" />
  <path
     id="path32"
     stroke-width="3"
     stroke="black"
     fill="none"
     d="M271,391v 5" />
  <path
     id="path34"
     stroke-width="3"
     stroke="black"
     fill="none"
     d="M300,391v 5" />
  <path
     id="path36"
     stroke-width="3"
     stroke="black"
     fill="none"
     d="M330,391v 5" />
  <path
     id="path38"
     stroke-width="3"
     stroke="black"
     fill="none"
     d="M359,391v 5" />
  <path
     id="path40"
     stroke-width="3"
     stroke="black"
     fill="none"
     d="M389,385v 11" />
  <path
     id="path42"
     stroke-width="3"
     stroke="black"
     fill="none"
     d="M94,385v 11" />
  <path
     id="path44"
     stroke-width="3"
     stroke="black"
     fill="none"
     d="M389,385v 11" />
  <path
     id="path46"
     stroke-width="3"
     stroke="black"
     fill="none"
     d="M418,391v 5" />
  <path
     id="path48"
     stroke-width="3"
     stroke="black"
     fill="none"
     d="M448,391v 5" />
  <path
     id="path50"
     stroke-width="3"
     stroke="black"
     fill="none"
     d="M477,391v 5" />
  <path
     id="path52"
     stroke-width="3"
     stroke="black"
     fill="none"
     d="M507,391v 5" />
  <g
     id="text54"
     style="font-weight:bold;font-size:21px;font-family:Times;fill:#000000">
    <path
       id="path400"
       style="font-weight:bold;font-size:21px;font-family:Times;fill:#000000"
       d="m 97.996,408.923 c 0,-4.2 -2.037,-7.371 -4.746,-7.371 -1.365,0 -2.751,0.924 -3.612,2.436 -0.672,1.155 -1.134,3.129 -1.134,4.872 0,4.326 1.974,7.413 4.767,7.413 2.709,0 4.725,-3.129 4.725,-7.35 z m -3.318,2.415 c 0,1.239 -0.168,2.877 -0.357,3.444 -0.231,0.609 -0.567,0.903 -1.05,0.903 -1.05,0 -1.449,-1.239 -1.449,-4.347 l 0,-4.809 c 0,-3.171 0.399,-4.389 1.407,-4.389 1.029,0 1.449,1.302 1.449,4.389 l 0,4.809 z" />
  </g>
  <g
     id="text56"
     style="font-weight:bold;font-size:21px;font-family:Times;fill:#000000">
    <path
       id="path403"
       style="font-weight:bold;font-size:21px;font-family:Times;fill:#000000"
       d="m 244.87,401.804 -6.762,0 -2.037,7.245 c 1.995,0.147 2.856,0.273 3.78,0.567 1.869,0.588 2.982,1.785 2.982,3.171 0,1.176 -0.924,2.1 -2.1,2.1 -0.483,0 -1.05,-0.252 -1.89,-0.882 -0.903,-0.672 -1.533,-0.945 -2.079,-0.945 -0.756,0 -1.302,0.525 -1.302,1.26 0,1.113 1.218,1.848 3.087,1.848 3.465,0 5.922,-2.1 5.922,-5.061 0,-2.184 -1.344,-3.864 -3.633,-4.515 -0.798,-0.231 -1.449,-0.315 -3.171,-0.42 l 0.462,-1.701 5.838,0 0.903,-2.667 z" />
  </g>
  <g
     id="text58"
     style="font-weight:bold;font-size:21px;font-family:Times;fill:#000000">
    <path
       id="path406"
       style="font-weight:bold;font-size:21px;font-family:Times;fill:#000000"
       d="m 386.282,416 0,-0.504 c -1.911,-0.042 -2.268,-0.357 -2.268,-1.974 l 0,-11.97 -0.357,0 -5.292,2.289 0,0.546 c 0.189,-0.063 0.357,-0.126 0.42,-0.168 0.567,-0.21 1.092,-0.357 1.365,-0.357 0.525,0 0.756,0.462 0.756,1.449 l 0,8.085 c 0,1.722 -0.42,2.079 -2.499,2.1 l 0,0.504 7.875,0 z" />
    <path
       id="path408"
       style="font-weight:bold;font-size:21px;font-family:Times;fill:#000000"
       d="m 397.496,408.923 c 0,-4.2 -2.037,-7.371 -4.746,-7.371 -1.365,0 -2.751,0.924 -3.612,2.436 -0.672,1.155 -1.134,3.129 -1.134,4.872 0,4.326 1.974,7.413 4.767,7.413 2.709,0 4.725,-3.129 4.725,-7.35 z m -3.318,2.415 c 0,1.239 -0.168,2.877 -0.357,3.444 -0.231,0.609 -0.567,0.903 -1.05,0.903 -1.05,0 -1.449,-1.239 -1.449,-4.347 l 0,-4.809 c 0,-3.171 0.399,-4.389 1.407,-4.389 1.029,0 1.449,1.302 1.449,4.389 l 0,4.809 z" />
  </g>
  <path
     id="path60"
     stroke-width="3"
     stroke="black"
     fill="none"
     d="M79,37h 443" />
  <path
     id="path62"
     stroke-width="3"
     stroke="black"
     fill="none"
     d="M94,48v -11" />
  <path
     id="path64"
     stroke-width="3"
     stroke="black"
     fill="none"
     d="M124,43v -6" />
  <path
     id="path66"
     stroke-width="3"
     stroke="black"
     fill="none"
     d="M153,43v -6" />
  <path
     id="path68"
     stroke-width="3"
     stroke="black"
     fill="none"
     d="M183,43v -6" />
  <path
     id="path70"
     stroke-width="3"
     stroke="black"
     fill="none"
     d="M212,43v -6" />
  <path
     id="path72"
     stroke-width="3"
     stroke="black"
     fill="none"
     d="M242,48v -11" />
  <path
     id="path74"
     stroke-width="3"
     stroke="black"
     fill="none"
     d="M271,43v -6" />
  <path
     id="path76"
     stroke-width="3"
     stroke="black"
     fill="none"
     d="M300,43v -6" />
  <path
     id="path78"
     stroke-width="3"
     stroke="black"
     fill="none"
     d="M330,43v -6" />
  <path
     id="path80"
     stroke-width="3"
     stroke="black"
     fill="none"
     d="M359,43v -6" />
  <path
     id="path82"
     stroke-width="3"
     stroke="black"
     fill="none"
     d="M389,48v -11" />
  <path
     id="path84"
     stroke-width="3"
     stroke="black"
     fill="none"
     d="M94,48v -11" />
  <path
     id="path86"
     stroke-width="3"
     stroke="black"
     fill="none"
     d="M389,48v -11" />
  <path
     id="path88"
     stroke-width="3"
     stroke="black"
     fill="none"
     d="M418,43v -6" />
  <path
     id="path90"
     stroke-width="3"
     stroke="black"
     fill="none"
     d="M448,43v -6" />
  <path
     id="path92"
     stroke-width="3"
     stroke="black"
     fill="none"
     d="M477,43v -6" />
  <path
     id="path94"
     stroke-width="3"
     stroke="black"
     fill="none"
     d="M507,43v -6" />
  <path
     id="path96"
     stroke-width="3"
     stroke="black"
     fill="none"
     d="M79,396v -359" />
  <g
     id="g98"
     transform="matrix(0,-1,1,0,-150,204)">
    <g
       id="text100"
       style="font-weight:bold;font-size:32px;font-family:Times;fill:#000000">
      <path
         id="path411"
         style="font-weight:bold;font-size:32px;font-family:Times;fill:#000000"
         d="m 39.448,158.088 c 0,-1.888 -1.856,-3.2 -4.576,-3.2 -2.144,0 -3.808,0.768 -4.672,2.176 -0.704,1.12 -0.928,2.432 -0.928,5.184 l -1.824,0 0,1.408 1.824,0 0,10.656 c 0,1.376 -0.352,1.76 -1.824,1.92 l 0,0.768 8.896,0 0,-0.768 c -2.24,-0.064 -2.624,-0.448 -2.624,-2.528 l 0,-10.048 2.784,0 0,-1.408 -2.784,0 0,-3.904 c 0,-1.76 0.448,-2.464 1.6,-2.464 0.576,0 0.928,0.224 0.928,0.608 0,0.16 -0.064,0.352 -0.288,0.672 -0.288,0.48 -0.416,0.8 -0.416,1.152 0,0.992 0.832,1.76 1.92,1.76 1.184,0 1.984,-0.8 1.984,-1.984 z" />
      <path
         id="path413"
         style="font-weight:bold;font-size:32px;font-family:Times;fill:#000000"
         d="m 51.5755,164.36 c 0,-1.44 -1.088,-2.496 -2.592,-2.496 -1.6,0 -2.816,0.864 -4.32,3.008 l 0,-2.624 -6.048,0 0,0.768 c 1.376,0.192 1.728,0.608 1.728,1.888 l 0,9.408 c 0,1.312 -0.32,1.664 -1.728,1.92 l 0,0.768 8.512,0 0,-0.768 c -1.952,-0.128 -2.336,-0.544 -2.336,-2.528 l 0,-6.048 c 0,-1.664 0.896,-3.04 1.952,-3.04 0.256,0 0.544,0.224 0.896,0.736 0.608,0.864 1.088,1.152 1.92,1.152 1.184,0 2.016,-0.896 2.016,-2.144 z" />
      <path
         id="path415"
         style="font-weight:bold;font-size:32px;font-family:Times;fill:#000000"
         d="M 65.1945,173.448 64.4265,173 c -1.312,1.568 -2.272,2.144 -3.648,2.144 -1.216,0 -2.176,-0.544 -2.816,-1.632 -0.608,-1.024 -0.864,-2.112 -0.992,-4.352 l 8.064,0 c -0.192,-2.656 -0.672,-4.128 -1.664,-5.376 -1.024,-1.248 -2.528,-1.92 -4.32,-1.92 -4,0 -6.688,3.168 -6.688,7.84 0,4.672 2.624,7.744 6.592,7.744 2.592,0 4.16,-0.992 6.24,-4 z m -4.096,-5.472 -4.288,0 c 0.096,-3.84 0.672,-5.12 2.24,-5.12 0.928,0 1.504,0.512 1.76,1.504 0.16,0.608 0.224,1.504 0.288,3.136 l 0,0.48 z" />
      <path
         id="path417"
         style="font-weight:bold;font-size:32px;font-family:Times;fill:#000000"
         d="m 82.902,183.56 0,-0.768 c -1.472,-0.288 -1.76,-0.576 -1.76,-1.856 l 0,-19.04 -0.48,0 -2.496,1.792 c -1.632,-1.376 -2.624,-1.824 -4.224,-1.824 -4.16,0 -7.104,3.36 -7.104,8.128 0,4.384 2.432,7.456 5.92,7.456 1.504,0 2.624,-0.512 3.936,-1.792 l 0,4.448 c 0,1.984 -0.256,2.272 -2.336,2.656 l 0,0.8 8.544,0 z m -6.208,-9.696 c -0.32,1.184 -1.12,1.856 -2.208,1.856 -1.984,0 -2.976,-2.08 -2.976,-6.272 0,-4.32 1.024,-6.56 3.04,-6.56 1.28,0 2.144,1.024 2.144,2.56 l 0,8.416 z" />
      <path
         id="path419"
         style="font-weight:bold;font-size:32px;font-family:Times;fill:#000000"
         d="m 100.2465,176.36 0,-0.736 c -1.408,-0.064 -1.792,-0.48 -1.792,-1.856 l 0,-11.52 -6.432,0 0,0.768 c 1.6,0.128 1.984,0.512 1.984,1.888 l 0,9.056 c -1.056,1.056 -1.696,1.408 -2.624,1.408 -1.312,0 -1.792,-0.64 -1.792,-2.272 l 0,-10.848 -6.016,0 0,0.768 c 1.312,0.256 1.568,0.544 1.568,1.888 l 0,8.064 c 0,2.816 1.6,4.48 4.256,4.48 1.664,0 2.784,-0.512 4.64,-2.112 l 0,2.08 c 1.376,-0.48 2.144,-0.608 4.224,-0.832 l 1.984,-0.224 z" />
      <path
         id="path421"
         style="font-weight:bold;font-size:32px;font-family:Times;fill:#000000"
         d="M 114.507,173.448 113.739,173 c -1.312,1.568 -2.272,2.144 -3.648,2.144 -1.216,0 -2.176,-0.544 -2.816,-1.632 -0.608,-1.024 -0.864,-2.112 -0.992,-4.352 l 8.064,0 c -0.192,-2.656 -0.672,-4.128 -1.664,-5.376 -1.024,-1.248 -2.528,-1.92 -4.32,-1.92 -4,0 -6.688,3.168 -6.688,7.84 0,4.672 2.624,7.744 6.592,7.744 2.592,0 4.16,-0.992 6.24,-4 z m -4.096,-5.472 -4.288,0 c 0.096,-3.84 0.672,-5.12 2.24,-5.12 0.928,0 1.504,0.512 1.76,1.504 0.16,0.608 0.224,1.504 0.288,3.136 l 0,0.48 z" />
      <path
         id="path423"
         style="font-weight:bold;font-size:32px;font-family:Times;fill:#000000"
         d="m 132.3105,177 0,-0.768 c -1.248,-0.096 -1.568,-0.48 -1.568,-1.824 l 0,-8.032 c 0,-2.752 -1.696,-4.512 -4.32,-4.512 -1.92,0 -3.392,0.896 -4.576,2.784 l 0,-2.4 -6.112,0 0,0.768 c 1.408,0.224 1.696,0.544 1.696,1.888 l 0,9.408 c 0,1.344 -0.256,1.632 -1.696,1.92 l 0,0.768 7.712,0 0,-0.768 c -1.184,-0.16 -1.568,-0.64 -1.568,-1.824 l 0,-8.544 c 0,-0.128 0.224,-0.448 0.544,-0.736 0.704,-0.736 1.472,-1.12 2.208,-1.12 1.12,0 1.664,0.864 1.664,2.656 l 0,7.744 c 0,1.184 -0.416,1.696 -1.504,1.824 l 0,0.768 7.52,0 z" />
      <path
         id="path425"
         style="font-weight:bold;font-size:32px;font-family:Times;fill:#000000"
         d="m 146.635,174.088 -0.576,-0.576 c -1.184,1.344 -2.016,1.792 -3.328,1.792 -2.784,0 -4.544,-2.784 -4.544,-7.136 0,-3.296 1.024,-5.312 2.688,-5.312 0.512,0 0.992,0.256 1.184,0.608 0.16,0.288 0.16,0.288 0.16,1.632 0.032,1.6 0.576,2.304 1.792,2.304 1.344,0 2.176,-0.768 2.176,-2.016 0,-1.984 -2.144,-3.52 -4.928,-3.52 -4.384,0 -7.584,3.36 -7.584,8 0,4.448 2.848,7.584 6.848,7.584 2.464,0 4.256,-0.992 6.112,-3.36 z" />
      <path
         id="path427"
         style="font-weight:bold;font-size:32px;font-family:Times;fill:#000000"
         d="m 162.4225,163.016 0,-0.768 -4.832,0 0,0.768 c 1.376,0.064 1.76,0.288 1.76,1.056 0,0.352 -0.064,0.64 -0.352,1.44 l -2.176,6.144 -2.304,-5.92 c -0.64,-1.632 -0.64,-1.632 -0.64,-1.888 0,-0.448 0.384,-0.736 1.184,-0.8 l 0.512,-0.032 0,-0.768 -8,0 0,0.768 c 0.736,0.096 0.928,0.192 1.12,0.48 0.096,0 1.536,3.136 2.08,4.48 l 3.84,9.44 -0.576,1.696 c -0.544,1.6 -1.376,2.624 -2.112,2.624 -0.288,0 -0.544,-0.256 -0.544,-0.544 0,0 0,-0.096 0.032,-0.192 0.032,-0.16 0.064,-0.32 0.064,-0.448 0,-0.928 -0.768,-1.568 -1.856,-1.568 -1.184,0 -2.048,0.832 -2.048,2.048 0,1.472 1.28,2.528 3.104,2.528 1.088,0 2.016,-0.384 2.688,-1.056 0.672,-0.736 1.312,-2.016 2.432,-5.024 l 4.768,-12.704 c 0.544,-1.344 0.864,-1.664 1.856,-1.76 z" />
    </g>
  </g>
  <path
     id="path102"
     stroke-width="3"
     stroke="black"
     fill="none"
     d="M92,396h -13" />
  <path
     id="path104"
     stroke-width="3"
     stroke="black"
     fill="none"
     d="M86,380h -7" />
  <path
     id="path106"
     stroke-width="3"
     stroke="black"
     fill="none"
     d="M86,364h -7" />
  <path
     id="path108"
     stroke-width="3"
     stroke="black"
     fill="none"
     d="M86,348h -7" />
  <path
     id="path110"
     stroke-width="3"
     stroke="black"
     fill="none"
     d="M86,332h -7" />
  <path
     id="path112"
     stroke-width="3"
     stroke="black"
     fill="none"
     d="M92,316h -13" />
  <path
     id="path114"
     stroke-width="3"
     stroke="black"
     fill="none"
     d="M86,300h -7" />
  <path
     id="path116"
     stroke-width="3"
     stroke="black"
     fill="none"
     d="M86,284h -7" />
  <path
     id="path118"
     stroke-width="3"
     stroke="black"
     fill="none"
     d="M86,268h -7" />
  <path
     id="path120"
     stroke-width="3"
     stroke="black"
     fill="none"
     d="M86,252h -7" />
  <path
     id="path122"
     stroke-width="3"
     stroke="black"
     fill="none"
     d="M92,236h -13" />
  <path
     id="path124"
     stroke-width="3"
     stroke="black"
     fill="none"
     d="M86,220h -7" />
  <path
     id="path126"
     stroke-width="3"
     stroke="black"
     fill="none"
     d="M86,204h -7" />
  <path
     id="path128"
     stroke-width="3"
     stroke="black"
     fill="none"
     d="M86,189h -7" />
  <path
     id="path130"
     stroke-width="3"
     stroke="black"
     fill="none"
     d="M86,173h -7" />
  <path
     id="path132"
     stroke-width="3"
     stroke="black"
     fill="none"
     d="M92,157h -13" />
  <path
     id="path134"
     stroke-width="3"
     stroke="black"
     fill="none"
     d="M86,141h -7" />
  <path
     id="path136"
     stroke-width="3"
     stroke="black"
     fill="none"
     d="M86,125h -7" />
  <path
     id="path138"
     stroke-width="3"
     stroke="black"
     fill="none"
     d="M86,109h -7" />
  <path
     id="path140"
     stroke-width="3"
     stroke="black"
     fill="none"
     d="M86,93h -7" />
  <path
     id="path142"
     stroke-width="3"
     stroke="black"
     fill="none"
     d="M92,77h -13" />
  <path
     id="path144"
     stroke-width="3"
     stroke="black"
     fill="none"
     d="M92,77h -13" />
  <path
     id="path146"
     stroke-width="3"
     stroke="black"
     fill="none"
     d="M86,61h -7" />
  <path
     id="path148"
     stroke-width="3"
     stroke="black"
     fill="none"
     d="M86,45h -7" />
  <g
     id="text150"
     style="font-weight:bold;font-size:21px;font-family:Times;fill:#000000">
    <path
       id="path430"
       style="font-weight:bold;font-size:21px;font-family:Times;fill:#000000"
       d="m 44.996,396.923 c 0,-4.2 -2.037,-7.371 -4.746,-7.371 -1.365,0 -2.751,0.924 -3.612,2.436 -0.672,1.155 -1.134,3.129 -1.134,4.872 0,4.326 1.974,7.413 4.767,7.413 2.709,0 4.725,-3.129 4.725,-7.35 z m -3.318,2.415 c 0,1.239 -0.168,2.877 -0.357,3.444 -0.231,0.609 -0.567,0.903 -1.05,0.903 -1.05,0 -1.449,-1.239 -1.449,-4.347 l 0,-4.809 c 0,-3.171 0.399,-4.389 1.407,-4.389 1.029,0 1.449,1.302 1.449,4.389 l 0,4.809 z" />
    <path
       id="path432"
       style="font-weight:bold;font-size:21px;font-family:Times;fill:#000000"
       d="m 49.91,402.53 c 0,-0.987 -0.798,-1.806 -1.785,-1.806 -0.966,0 -1.764,0.819 -1.764,1.764 0,1.008 0.756,1.785 1.743,1.785 1.008,0 1.806,-0.777 1.806,-1.743 z" />
    <path
       id="path434"
       style="font-weight:bold;font-size:21px;font-family:Times;fill:#000000"
       d="m 60.746,396.923 c 0,-4.2 -2.037,-7.371 -4.746,-7.371 -1.365,0 -2.751,0.924 -3.612,2.436 -0.672,1.155 -1.134,3.129 -1.134,4.872 0,4.326 1.974,7.413 4.767,7.413 2.709,0 4.725,-3.129 4.725,-7.35 z m -3.318,2.415 c 0,1.239 -0.168,2.877 -0.357,3.444 -0.231,0.609 -0.567,0.903 -1.05,0.903 -1.05,0 -1.449,-1.239 -1.449,-4.347 l 0,-4.809 c 0,-3.171 0.399,-4.389 1.407,-4.389 1.029,0 1.449,1.302 1.449,4.389 l 0,4.809 z" />
    <path
       id="path436"
       style="font-weight:bold;font-size:21px;font-family:Times;fill:#000000"
       d="m 71.246,396.923 c 0,-4.2 -2.037,-7.371 -4.746,-7.371 -1.365,0 -2.751,0.924 -3.612,2.436 -0.672,1.155 -1.134,3.129 -1.134,4.872 0,4.326 1.974,7.413 4.767,7.413 2.709,0 4.725,-3.129 4.725,-7.35 z m -3.318,2.415 c 0,1.239 -0.168,2.877 -0.357,3.444 -0.231,0.609 -0.567,0.903 -1.05,0.903 -1.05,0 -1.449,-1.239 -1.449,-4.347 l 0,-4.809 c 0,-3.171 0.399,-4.389 1.407,-4.389 1.029,0 1.449,1.302 1.449,4.389 l 0,4.809 z" />
  </g>
  <g
     id="text152"
     style="font-weight:bold;font-size:21px;font-family:Times;fill:#000000">
    <path
       id="path439"
       style="font-weight:bold;font-size:21px;font-family:Times;fill:#000000"
       d="m 44.996,316.923 c 0,-4.2 -2.037,-7.371 -4.746,-7.371 -1.365,0 -2.751,0.924 -3.612,2.436 -0.672,1.155 -1.134,3.129 -1.134,4.872 0,4.326 1.974,7.413 4.767,7.413 2.709,0 4.725,-3.129 4.725,-7.35 z m -3.318,2.415 c 0,1.239 -0.168,2.877 -0.357,3.444 -0.231,0.609 -0.567,0.903 -1.05,0.903 -1.05,0 -1.449,-1.239 -1.449,-4.347 l 0,-4.809 c 0,-3.171 0.399,-4.389 1.407,-4.389 1.029,0 1.449,1.302 1.449,4.389 l 0,4.809 z" />
    <path
       id="path441"
       style="font-weight:bold;font-size:21px;font-family:Times;fill:#000000"
       d="m 49.91,322.53 c 0,-0.987 -0.798,-1.806 -1.785,-1.806 -0.966,0 -1.764,0.819 -1.764,1.764 0,1.008 0.756,1.785 1.743,1.785 1.008,0 1.806,-0.777 1.806,-1.743 z" />
    <path
       id="path443"
       style="font-weight:bold;font-size:21px;font-family:Times;fill:#000000"
       d="m 60.746,316.923 c 0,-4.2 -2.037,-7.371 -4.746,-7.371 -1.365,0 -2.751,0.924 -3.612,2.436 -0.672,1.155 -1.134,3.129 -1.134,4.872 0,4.326 1.974,7.413 4.767,7.413 2.709,0 4.725,-3.129 4.725,-7.35 z m -3.318,2.415 c 0,1.239 -0.168,2.877 -0.357,3.444 -0.231,0.609 -0.567,0.903 -1.05,0.903 -1.05,0 -1.449,-1.239 -1.449,-4.347 l 0,-4.809 c 0,-3.171 0.399,-4.389 1.407,-4.389 1.029,0 1.449,1.302 1.449,4.389 l 0,4.809 z" />
    <path
       id="path445"
       style="font-weight:bold;font-size:21px;font-family:Times;fill:#000000"
       d="m 71.12,309.804 -6.762,0 -2.037,7.245 c 1.995,0.147 2.856,0.273 3.78,0.567 1.869,0.588 2.982,1.785 2.982,3.171 0,1.176 -0.924,2.1 -2.1,2.1 -0.483,0 -1.05,-0.252 -1.89,-0.882 -0.903,-0.672 -1.533,-0.945 -2.079,-0.945 -0.756,0 -1.302,0.525 -1.302,1.26 0,1.113 1.218,1.848 3.087,1.848 3.465,0 5.922,-2.1 5.922,-5.061 0,-2.184 -1.344,-3.864 -3.633,-4.515 -0.798,-0.231 -1.449,-0.315 -3.171,-0.42 l 0.462,-1.701 5.838,0 0.903,-2.667 z" />
  </g>
  <g
     id="text154"
     style="font-weight:bold;font-size:21px;font-family:Times;fill:#000000">
    <path
       id="path448"
       style="font-weight:bold;font-size:21px;font-family:Times;fill:#000000"
       d="m 44.996,236.923 c 0,-4.2 -2.037,-7.371 -4.746,-7.371 -1.365,0 -2.751,0.924 -3.612,2.436 -0.672,1.155 -1.134,3.129 -1.134,4.872 0,4.326 1.974,7.413 4.767,7.413 2.709,0 4.725,-3.129 4.725,-7.35 z m -3.318,2.415 c 0,1.239 -0.168,2.877 -0.357,3.444 -0.231,0.609 -0.567,0.903 -1.05,0.903 -1.05,0 -1.449,-1.239 -1.449,-4.347 l 0,-4.809 c 0,-3.171 0.399,-4.389 1.407,-4.389 1.029,0 1.449,1.302 1.449,4.389 l 0,4.809 z" />
    <path
       id="path450"
       style="font-weight:bold;font-size:21px;font-family:Times;fill:#000000"
       d="m 49.91,242.53 c 0,-0.987 -0.798,-1.806 -1.785,-1.806 -0.966,0 -1.764,0.819 -1.764,1.764 0,1.008 0.756,1.785 1.743,1.785 1.008,0 1.806,-0.777 1.806,-1.743 z" />
    <path
       id="path452"
       style="font-weight:bold;font-size:21px;font-family:Times;fill:#000000"
       d="m 60.032,244 0,-0.504 c -1.911,-0.042 -2.268,-0.357 -2.268,-1.974 l 0,-11.97 -0.357,0 -5.292,2.289 0,0.546 c 0.189,-0.063 0.357,-0.126 0.42,-0.168 0.567,-0.21 1.092,-0.357 1.365,-0.357 0.525,0 0.756,0.462 0.756,1.449 l 0,8.085 c 0,1.722 -0.42,2.079 -2.499,2.1 l 0,0.504 7.875,0 z" />
    <path
       id="path454"
       style="font-weight:bold;font-size:21px;font-family:Times;fill:#000000"
       d="m 71.246,236.923 c 0,-4.2 -2.037,-7.371 -4.746,-7.371 -1.365,0 -2.751,0.924 -3.612,2.436 -0.672,1.155 -1.134,3.129 -1.134,4.872 0,4.326 1.974,7.413 4.767,7.413 2.709,0 4.725,-3.129 4.725,-7.35 z m -3.318,2.415 c 0,1.239 -0.168,2.877 -0.357,3.444 -0.231,0.609 -0.567,0.903 -1.05,0.903 -1.05,0 -1.449,-1.239 -1.449,-4.347 l 0,-4.809 c 0,-3.171 0.399,-4.389 1.407,-4.389 1.029,0 1.449,1.302 1.449,4.389 l 0,4.809 z" />
  </g>
  <g
     id="text156"
     style="font-weight:bold;font-size:21px;font-family:Times;fill:#000000">
    <path
       id="path457"
       style="font-weight:bold;font-size:21px;font-family:Times;fill:#000000"
       d="m 44.996,157.923 c 0,-4.2 -2.037,-7.371 -4.746,-7.371 -1.365,0 -2.751,0.924 -3.612,2.436 -0.672,1.155 -1.134,3.129 -1.134,4.872 0,4.326 1.974,7.413 4.767,7.413 2.709,0 4.725,-3.129 4.725,-7.35 z m -3.318,2.415 c 0,1.239 -0.168,2.877 -0.357,3.444 -0.231,0.609 -0.567,0.903 -1.05,0.903 -1.05,0 -1.449,-1.239 -1.449,-4.347 l 0,-4.809 c 0,-3.171 0.399,-4.389 1.407,-4.389 1.029,0 1.449,1.302 1.449,4.389 l 0,4.809 z" />
    <path
       id="path459"
       style="font-weight:bold;font-size:21px;font-family:Times;fill:#000000"
       d="m 49.91,163.53 c 0,-0.987 -0.798,-1.806 -1.785,-1.806 -0.966,0 -1.764,0.819 -1.764,1.764 0,1.008 0.756,1.785 1.743,1.785 1.008,0 1.806,-0.777 1.806,-1.743 z" />
    <path
       id="path461"
       style="font-weight:bold;font-size:21px;font-family:Times;fill:#000000"
       d="m 60.032,165 0,-0.504 c -1.911,-0.042 -2.268,-0.357 -2.268,-1.974 l 0,-11.97 -0.357,0 -5.292,2.289 0,0.546 c 0.189,-0.063 0.357,-0.126 0.42,-0.168 0.567,-0.21 1.092,-0.357 1.365,-0.357 0.525,0 0.756,0.462 0.756,1.449 l 0,8.085 c 0,1.722 -0.42,2.079 -2.499,2.1 l 0,0.504 7.875,0 z" />
    <path
       id="path463"
       style="font-weight:bold;font-size:21px;font-family:Times;fill:#000000"
       d="m 71.12,150.804 -6.762,0 -2.037,7.245 c 1.995,0.147 2.856,0.273 3.78,0.567 1.869,0.588 2.982,1.785 2.982,3.171 0,1.176 -0.924,2.1 -2.1,2.1 -0.483,0 -1.05,-0.252 -1.89,-0.882 -0.903,-0.672 -1.533,-0.945 -2.079,-0.945 -0.756,0 -1.302,0.525 -1.302,1.26 0,1.113 1.218,1.848 3.087,1.848 3.465,0 5.922,-2.1 5.922,-5.061 0,-2.184 -1.344,-3.864 -3.633,-4.515 -0.798,-0.231 -1.449,-0.315 -3.171,-0.42 l 0.462,-1.701 5.838,0 0.903,-2.667 z" />
  </g>
  <g
     id="text158"
     style="font-weight:bold;font-size:21px;font-family:Times;fill:#000000">
    <path
       id="path466"
       style="font-weight:bold;font-size:21px;font-family:Times;fill:#000000"
       d="m 44.996,77.923 c 0,-4.2 -2.037,-7.371 -4.746,-7.371 -1.365,0 -2.751,0.924 -3.612,2.436 -0.672,1.155 -1.134,3.129 -1.134,4.872 0,4.326 1.974,7.413 4.767,7.413 2.709,0 4.725,-3.129 4.725,-7.35 z m -3.318,2.415 c 0,1.239 -0.168,2.877 -0.357,3.444 -0.231,0.609 -0.567,0.903 -1.05,0.903 -1.05,0 -1.449,-1.239 -1.449,-4.347 l 0,-4.809 c 0,-3.171 0.399,-4.389 1.407,-4.389 1.029,0 1.449,1.302 1.449,4.389 l 0,4.809 z" />
    <path
       id="path468"
       style="font-weight:bold;font-size:21px;font-family:Times;fill:#000000"
       d="m 49.91,83.53 c 0,-0.987 -0.798,-1.806 -1.785,-1.806 -0.966,0 -1.764,0.819 -1.764,1.764 0,1.008 0.756,1.785 1.743,1.785 1.008,0 1.806,-0.777 1.806,-1.743 z" />
    <path
       id="path470"
       style="font-weight:bold;font-size:21px;font-family:Times;fill:#000000"
       d="m 60.788,80.569 -0.504,0 c -0.609,1.512 -0.861,1.638 -3.003,1.638 l -3.171,0 3.402,-3.234 c 1.659,-1.575 2.394,-2.982 2.394,-4.578 0,-2.247 -1.617,-3.843 -3.885,-3.843 -1.05,0 -2.058,0.42 -2.793,1.176 -0.819,0.819 -1.239,1.533 -1.827,3.108 l 0.588,0 c 0.651,-1.302 1.428,-1.89 2.562,-1.89 0.924,0 1.617,0.399 2.079,1.155 0.252,0.441 0.42,1.029 0.42,1.512 0,0.924 -0.399,2.079 -1.071,3.108 -1.071,1.638 -1.806,2.52 -4.872,5.796 l 0,0.483 8.736,0 0.945,-4.431 z" />
    <path
       id="path472"
       style="font-weight:bold;font-size:21px;font-family:Times;fill:#000000"
       d="m 71.246,77.923 c 0,-4.2 -2.037,-7.371 -4.746,-7.371 -1.365,0 -2.751,0.924 -3.612,2.436 -0.672,1.155 -1.134,3.129 -1.134,4.872 0,4.326 1.974,7.413 4.767,7.413 2.709,0 4.725,-3.129 4.725,-7.35 z m -3.318,2.415 c 0,1.239 -0.168,2.877 -0.357,3.444 -0.231,0.609 -0.567,0.903 -1.05,0.903 -1.05,0 -1.449,-1.239 -1.449,-4.347 l 0,-4.809 c 0,-3.171 0.399,-4.389 1.407,-4.389 1.029,0 1.449,1.302 1.449,4.389 l 0,4.809 z" />
  </g>
  <path
     id="path160"
     stroke-width="3"
     stroke="black"
     fill="none"
     d="M522,396v -359" />
  <path
     id="path162"
     stroke-width="3"
     stroke="black"
     fill="none"
     d="M508,396h 14" />
  <path
     id="path164"
     stroke-width="3"
     stroke="black"
     fill="none"
     d="M515,380h 7" />
  <path
     id="path166"
     stroke-width="3"
     stroke="black"
     fill="none"
     d="M515,364h 7" />
  <path
     id="path168"
     stroke-width="3"
     stroke="black"
     fill="none"
     d="M515,348h 7" />
  <path
     id="path170"
     stroke-width="3"
     stroke="black"
     fill="none"
     d="M515,332h 7" />
  <path
     id="path172"
     stroke-width="3"
     stroke="black"
     fill="none"
     d="M508,316h 14" />
  <path
     id="path174"
     stroke-width="3"
     stroke="black"
     fill="none"
     d="M515,300h 7" />
  <path
     id="path176"
     stroke-width="3"
     stroke="black"
     fill="none"
     d="M515,284h 7" />
  <path
     id="path178"
     stroke-width="3"
     stroke="black"
     fill="none"
     d="M515,268h 7" />
  <path
     id="path180"
     stroke-width="3"
     stroke="black"
     fill="none"
     d="M515,252h 7" />
  <path
     id="path182"
     stroke-width="3"
     stroke="black"
     fill="none"
     d="M508,236h 14" />
  <path
     id="path184"
     stroke-width="3"
     stroke="black"
     fill="none"
     d="M515,220h 7" />
  <path
     id="path186"
     stroke-width="3"
     stroke="black"
     fill="none"
     d="M515,204h 7" />
  <path
     id="path188"
     stroke-width="3"
     stroke="black"
     fill="none"
     d="M515,189h 7" />
  <path
     id="path190"
     stroke-width="3"
     stroke="black"
     fill="none"
     d="M515,173h 7" />
  <path
     id="path192"
     stroke-width="3"
     stroke="black"
     fill="none"
     d="M508,157h 14" />
  <path
     id="path194"
     stroke-width="3"
     stroke="black"
     fill="none"
     d="M515,141h 7" />
  <path
     id="path196"
     stroke-width="3"
     stroke="black"
     fill="none"
     d="M515,125h 7" />
  <path
     id="path198"
     stroke-width="3"
     stroke="black"
     fill="none"
     d="M515,109h 7" />
  <path
     id="path200"
     stroke-width="3"
     stroke="black"
     fill="none"
     d="M515,93h 7" />
  <path
     id="path202"
     stroke-width="3"
     stroke="black"
     fill="none"
     d="M508,77h 14" />
  <path
     id="path204"
     stroke-width="3"
     stroke="black"
     fill="none"
     d="M508,77h 14" />
  <path
     id="path206"
     stroke-width="3"
     stroke="black"
     fill="none"
     d="M515,61h 7" />
  <path
     id="path208"
     stroke-width="3"
     stroke="black"
     fill="none"
     d="M515,45h 7" />
  <rect
     id="rect210"
     fill="white"
     height="38"
     width="322"
     y="-4"
     x="113" />
  <g
     id="text212"
     style="font-weight:bold;font-size:30px;font-family:Helvetica;fill:#000000">
    <path
       id="path475"
       style="font-weight:bold;font-size:30px;font-family:Helvetica;fill:#000000"
       d="m 145.39,26 0,-21.87 -4.5,0 0,21.87 4.5,0 z" />
    <path
       id="path477"
       style="font-weight:bold;font-size:30px;font-family:Helvetica;fill:#000000"
       d="m 168.65031,26 0,-11.76 -8.76,0 0,3.75 4.98,0 c -0.3,2.73 -2.88,4.53 -5.55,4.53 -3.63,0 -6.24,-3.03 -6.24,-7.53 0,-4.71 2.31,-7.38 6.12,-7.38 2.46,0 4.35,0.96 5.22,3.51 l 4.23,0 c -0.54,-4.5 -4.2,-7.35 -9.48,-7.35 -6.3,0 -10.59,4.47 -10.59,11.28 0,6.63 4.32,11.31 10.23,11.31 2.94,0 4.92,-1.05 6.6,-3.36 l 0.54,3 2.7,0 z" />
    <path
       id="path479"
       style="font-weight:bold;font-size:30px;font-family:Helvetica;fill:#000000"
       d="m 190.35062,26 0,-21.87 -4.5,0 0,8.19 -8.67,0 0,-8.19 -4.5,0 0,21.87 4.5,0 0,-9.93 8.67,0 0,9.93 4.5,0 z" />
    <path
       id="path481"
       style="font-weight:bold;font-size:30px;font-family:Helvetica;fill:#000000"
       d="m 206.90031,19.97 0,-15.84 -4.5,0 0,15.84 c 0,1.65 -0.87,2.55 -2.43,2.55 -1.71,0 -2.43,-0.84 -2.43,-2.85 l 0,-1.77 -4.5,0 0,1.83 c 0,4.35 2.76,6.63 6.84,6.63 4.47,0 7.02,-2.31 7.02,-6.39 z" />
    <path
       id="path483"
       style="font-weight:bold;font-size:30px;font-family:Helvetica;fill:#000000"
       d="m 224.67953,21.29 0,-3.48 -2.22,0 0,-13.08 -4.95,0 -7.77,13.02 0,3.54 8.52,0 0,4.71 4.2,0 0,-4.71 2.22,0 z m -6.42,-3.48 -5.55,0 5.55,-9.09 0,9.09 z" />
    <path
       id="path485"
       style="font-weight:bold;font-size:30px;font-family:Helvetica;fill:#000000"
       d="m 236.42875,8.63 -0.66,-2.1 -3.27,1.08 0,-3.48 -2.16,0 0,3.48 -3.27,-1.08 -0.66,2.07 3.27,1.08 -2.01,2.82 1.74,1.29 2.01,-2.82 2.01,2.82 1.74,-1.29 -2.01,-2.82 3.27,-1.05 z" />
    <path
       id="path487"
       style="font-weight:bold;font-size:30px;font-family:Helvetica;fill:#000000"
       d="m 252.88891,15.41 c 0,-6.03 -1.08,-11.13 -7.32,-11.13 -6.09,0 -7.32,4.89 -7.32,11.01 0,5.94 1.17,10.98 7.32,10.98 4.32,0 7.32,-2.46 7.32,-10.86 z m -4.2,-0.09 c 0,5.97 -0.87,7.35 -3.12,7.35 -2.13,0 -3.12,-1.08 -3.12,-7.41 0,-6.18 0.87,-7.59 3.12,-7.59 2.07,0 3.12,1.05 3.12,7.65 z" />
    <path
       id="path489"
       style="font-weight:bold;font-size:30px;font-family:Helvetica;fill:#000000"
       d="m 269.52812,11.03 c 0,-4.11 -2.82,-6.75 -7.28999,-6.75 -4.41001,0 -6.99001,2.61 -6.99001,7.11 0,0.18 0,0.42 0.03,0.75 l 4.02001,0 0,-0.69 c 0,-2.37 1.10999,-3.75 3.02999,-3.75 1.86001,0 3,1.29 3,3.42 0,2.34 -0.75,3.27 -5.43,6.6 -3.59999,2.46 -4.70999,4.35 -4.92,8.28 l 14.46001,0 0,-3.75 -9,0 c 0.53999,-1.14 1.19999,-1.74 4.31999,-4.02 3.69,-2.7 4.77,-4.32 4.77,-7.2 z" />
    <path
       id="path491"
       style="font-weight:bold;font-size:30px;font-family:Helvetica;fill:#000000"
       d="m 288.03766,19.79 0,-4.05 -8.16,0 0,4.05 8.16,0 z" />
    <path
       id="path493"
       style="font-weight:bold;font-size:30px;font-family:Helvetica;fill:#000000"
       d="m 298.05719,19.79 0,-4.05 -8.16,0 0,4.05 8.16,0 z" />
    <path
       id="path495"
       style="font-weight:bold;font-size:30px;font-family:Helvetica;fill:#000000"
       d="m 322.03703,19.97 0,-15.84 -4.5,0 0,15.84 c 0,1.65 -0.87,2.55 -2.43,2.55 -1.71,0 -2.43,-0.84 -2.43,-2.85 l 0,-1.77 -4.5,0 0,1.83 c 0,4.35 2.76,6.63 6.84,6.63 4.47,0 7.02,-2.31 7.02,-6.39 z" />
    <path
       id="path497"
       style="font-weight:bold;font-size:30px;font-family:Helvetica;fill:#000000"
       d="m 347.98656,18.77 c 0,-4.35 -2.7,-7.14 -6.63,-7.14 -1.41,0 -2.46,0.36 -3.69,1.29 l 0.69,-4.44 8.79,0 0,-3.75 -11.37,0 -1.89,11.85 3.78,0 c 0.45,-1.05 1.41,-1.62 2.7,-1.62 2.13,0 3.42,1.32 3.42,3.9 0,2.49 -1.32,3.81 -3.42,3.81 -1.83,0 -2.94,-0.93 -2.94,-2.64 l -4.14,0 c 0,3.72 2.88,6.24 7.02,6.24 4.56,0 7.68,-2.91 7.68,-7.5 z" />
    <path
       id="path499"
       style="font-weight:bold;font-size:30px;font-family:Helvetica;fill:#000000"
       d="m 354.81578,8.03 0,-3.9 -4.14,0 0,3.9 1.2,3.87 1.68,0 1.26,-3.87 z" />
    <path
       id="path501"
       style="font-weight:bold;font-size:30px;font-family:Helvetica;fill:#000000"
       d="m 380.99453,26 0,-21.87 -4.2,0 0,7.77 c -1.05,-1.62 -2.46,-2.37 -4.47,-2.37 -3.87,0 -6.81,3.51 -6.81,8.4 0,4.59 2.52,8.34 6.81,8.34 2.01,0 3.42,-0.75 4.47,-2.13 l 0,1.86 4.2,0 z m -4.2,-8.01 c 0,2.94 -1.44,4.77 -3.54,4.77 -2.1,0 -3.54,-1.86 -3.54,-4.83 0,-3 1.44,-4.89 3.54,-4.89 2.13,0 3.54,1.86 3.54,4.95 z" />
    <path
       id="path503"
       style="font-weight:bold;font-size:30px;font-family:Helvetica;fill:#000000"
       d="m 398.73437,18.5 c 0,-5.58 -2.82,-8.97 -7.58999,-8.97 -4.65001,0 -7.5,3.15 -7.5,8.58 0,5.19 2.82,8.16 7.40999,8.16 3.63,0 6.57,-1.65 7.5,-4.83 l -4.14,0 c -0.36,1.17 -1.68,1.62 -3.20999,1.62 -1.98001,0 -3.24,-0.9 -3.36,-4.05 l 10.86,0 0.03,-0.51 z m -4.38,-2.28 -6.44999,0 c 0.26999,-2.25 1.31999,-3.48 3.18,-3.48 1.79999,0 3.06,1.17 3.26999,3.48 z" />
    <path
       id="path505"
       style="font-weight:bold;font-size:30px;font-family:Helvetica;fill:#000000"
       d="m 405.89359,26 0,-21.87 -4.2,0 0,21.87 4.2,0 z" />
    <path
       id="path507"
       style="font-weight:bold;font-size:30px;font-family:Helvetica;fill:#000000"
       d="m 423.75391,18.5 c 0,-5.58 -2.82,-8.97 -7.59,-8.97 -4.65,0 -7.5,3.15 -7.5,8.58 0,5.19 2.82,8.16 7.41,8.16 3.63,0 6.57,-1.65 7.5,-4.83 l -4.14,0 c -0.36,1.17 -1.68,1.62 -3.21,1.62 -1.98,0 -3.24,-0.9 -3.36,-4.05 l 10.86,0 0.03,-0.51 z m -4.38,-2.28 -6.45,0 c 0.27,-2.25 1.32,-3.48 3.18,-3.48 1.8,0 3.06,1.17 3.27,3.48 z" />
    <path
       id="path509"
       style="font-weight:bold;font-size:30px;font-family:Helvetica;fill:#000000"
       d="m 433.55734,26 0,-2.94 c -0.42,0.06 -0.66,0.09 -0.96,0.09 -1.11,0 -1.38,-0.33 -1.38,-1.77 l 0,-8.46 2.34,0 0,-2.79 -2.34,0 0,-4.35 -4.2,0 0,4.35 -2.07,0 0,2.79 2.07,0 0,9.6 c 0,2.55 1.35,3.6 4.11,3.6 0.93,0 1.68,-0.09 2.43,-0.12 z" />
    <path
       id="path511"
       style="font-weight:bold;font-size:30px;font-family:Helvetica;fill:#000000"
       d="m 440.75687,26 0,-16.2 -4.2,0 0,16.2 4.2,0 z m 0.06,-18.15 0,-4.2 -4.2,0 0,4.2 4.2,0 z" />
    <path
       id="path513"
       style="font-weight:bold;font-size:30px;font-family:Helvetica;fill:#000000"
       d="m 459.93719,18.02 c 0,-5.49 -2.97,-8.49 -8.04,-8.49 -4.95,0 -7.98,3.06 -7.98,8.37 0,5.34 3.03,8.37 8.01,8.37 4.92,0 8.01,-3.06 8.01,-8.25 z m -4.2,-0.06 c 0,3.03 -1.56,4.92 -3.81,4.92 -2.28,0 -3.81,-1.89 -3.81,-4.98 0,-3.09 1.53,-4.98 3.81,-4.98 2.31,0 3.81,1.86 3.81,5.04 z" />
    <path
       id="path515"
       style="font-weight:bold;font-size:30px;font-family:Helvetica;fill:#000000"
       d="m 477.58703,26 0,-10.86 c 0,-3.57 -1.98,-5.61 -5.43,-5.61 -2.19,0 -3.66,0.81 -4.86,2.61 l 0,-2.34 -4.2,0 0,16.2 4.2,0 0,-9.72 c 0,-1.92 1.35,-3.18 3.39,-3.18 1.8,0 2.7,0.99 2.7,2.91 l 0,9.99 4.2,0 z" />
  </g>
  <path
     id="path214"
     stroke="#666699"
     fill="none"
     d="M94,97l 30, 169l 29, -20l 30, 66l 29, -141l 30, 22l 29, 48l 29, 43l 30, -12l 29, 110l 30, -8l 29, -9l 30, -15" />
  <g
     style="fill:#666699;stroke:#666699;stroke-width:1"
     id="g216">
    <path
       id="circle218"
       d="M 97.5,97 A 3.5,3.5 0 0 1 94,100.5 3.5,3.5 0 0 1 90.5,97 3.5,3.5 0 0 1 94,93.5 3.5,3.5 0 0 1 97.5,97 Z"
       style="" />
    <path
       id="circle220"
       d="m 127.5,266 a 3.5,3.5 0 0 1 -3.5,3.5 3.5,3.5 0 0 1 -3.5,-3.5 3.5,3.5 0 0 1 3.5,-3.5 3.5,3.5 0 0 1 3.5,3.5 z"
       style="" />
    <path
       id="circle222"
       d="m 156.5,246 a 3.5,3.5 0 0 1 -3.5,3.5 3.5,3.5 0 0 1 -3.5,-3.5 3.5,3.5 0 0 1 3.5,-3.5 3.5,3.5 0 0 1 3.5,3.5 z"
       style="" />
    <path
       id="circle224"
       d="m 186.5,312 a 3.5,3.5 0 0 1 -3.5,3.5 3.5,3.5 0 0 1 -3.5,-3.5 3.5,3.5 0 0 1 3.5,-3.5 3.5,3.5 0 0 1 3.5,3.5 z"
       style="" />
    <path
       id="circle226"
       d="m 215.5,171 a 3.5,3.5 0 0 1 -3.5,3.5 3.5,3.5 0 0 1 -3.5,-3.5 3.5,3.5 0 0 1 3.5,-3.5 3.5,3.5 0 0 1 3.5,3.5 z"
       style="" />
    <path
       id="circle228"
       d="m 245.5,193 a 3.5,3.5 0 0 1 -3.5,3.5 3.5,3.5 0 0 1 -3.5,-3.5 3.5,3.5 0 0 1 3.5,-3.5 3.5,3.5 0 0 1 3.5,3.5 z"
       style="" />
    <path
       id="circle230"
       d="m 274.5,241 a 3.5,3.5 0 0 1 -3.5,3.5 3.5,3.5 0 0 1 -3.5,-3.5 3.5,3.5 0 0 1 3.5,-3.5 3.5,3.5 0 0 1 3.5,3.5 z"
       style="" />
    <path
       id="circle232"
       d="m 303.5,284 a 3.5,3.5 0 0 1 -3.5,3.5 3.5,3.5 0 0 1 -3.5,-3.5 3.5,3.5 0 0 1 3.5,-3.5 3.5,3.5 0 0 1 3.5,3.5 z"
       style="" />
    <path
       id="circle234"
       d="m 333.5,272 a 3.5,3.5 0 0 1 -3.5,3.5 3.5,3.5 0 0 1 -3.5,-3.5 3.5,3.5 0 0 1 3.5,-3.5 3.5,3.5 0 0 1 3.5,3.5 z"
       style="" />
    <path
       id="circle236"
       d="m 362.5,382 a 3.5,3.5 0 0 1 -3.5,3.5 3.5,3.5 0 0 1 -3.5,-3.5 3.5,3.5 0 0 1 3.5,-3.5 3.5,3.5 0 0 1 3.5,3.5 z"
       style="" />
    <path
       id="circle238"
       d="m 392.5,374 a 3.5,3.5 0 0 1 -3.5,3.5 3.5,3.5 0 0 1 -3.5,-3.5 3.5,3.5 0 0 1 3.5,-3.5 3.5,3.5 0 0 1 3.5,3.5 z"
       style="" />
    <path
       id="circle240"
       d="m 421.5,365 a 3.5,3.5 0 0 1 -3.5,3.5 3.5,3.5 0 0 1 -3.5,-3.5 3.5,3.5 0 0 1 3.5,-3.5 3.5,3.5 0 0 1 3.5,3.5 z"
       style="" />
    <path
       id="circle242"
       d="m 451.5,350 a 3.5,3.5 0 0 1 -3.5,3.5 3.5,3.5 0 0 1 -3.5,-3.5 3.5,3.5 0 0 1 3.5,-3.5 3.5,3.5 0 0 1 3.5,3.5 z"
       style="" />
  </g>
  <path
     id="path244"
     stroke="#ff6600"
     fill="none"
     d="M94,107v -6" />
  <path
     id="path246"
     stroke="#ff6600"
     fill="none"
     d="M94,113v 7" />
  <path
     id="path248"
     stroke="#ff6600"
     fill="none"
     d="M124,269v -1" />
  <path
     id="path250"
     stroke="#ff6600"
     fill="none"
     d="M124,275v 1" />
  <path
     id="path252"
     stroke="#ff6600"
     fill="none"
     d="M153,262v -2" />
  <path
     id="path254"
     stroke="#ff6600"
     fill="none"
     d="M153,268v 2" />
  <path
     id="path256"
     stroke="#ff6600"
     fill="none"
     d="M183,290v -1" />
  <path
     id="path258"
     stroke="#ff6600"
     fill="none"
     d="M183,296v 1" />
  <path
     id="path260"
     stroke="#ff6600"
     fill="none"
     d="M212,192v -5" />
  <path
     id="path262"
     stroke="#ff6600"
     fill="none"
     d="M212,198v 5" />
  <path
     id="path264"
     stroke="#ff6600"
     fill="none"
     d="M242,183v -5" />
  <path
     id="path266"
     stroke="#ff6600"
     fill="none"
     d="M242,190v 5" />
  <path
     id="path268"
     stroke="#ff6600"
     fill="none"
     d="M271,227v -3" />
  <path
     id="path270"
     stroke="#ff6600"
     fill="none"
     d="M271,234v 3" />
  <path
     id="path272"
     stroke="#ff6600"
     fill="none"
     d="M300,265v -3" />
  <path
     id="path274"
     stroke="#ff6600"
     fill="none"
     d="M300,271v 3" />
  <path
     id="path276"
     stroke="#ff6600"
     fill="none"
     d="M330,256v -3" />
  <path
     id="path278"
     stroke="#ff6600"
     fill="none"
     d="M330,263v 3" />
  <path
     id="path280"
     stroke="#ff6600"
     fill="none"
     d="M94,110l 30, 162l 29, -7l 30, 28l 29, -98l 30, -8l 29, 43l 29, 38l 30, -9l 29, 121l 30, -5l 29, -10l 30, -11l 29, 42h 30" />
  <g
     style="fill:#ff6600;stroke:#ff6600;stroke-width:1"
     id="g282">
    <path
       id="circle284"
       d="M 97.5,110 A 3.5,3.5 0 0 1 94,113.5 3.5,3.5 0 0 1 90.5,110 3.5,3.5 0 0 1 94,106.5 3.5,3.5 0 0 1 97.5,110 Z"
       style="" />
    <path
       id="circle286"
       d="m 127.5,272 a 3.5,3.5 0 0 1 -3.5,3.5 3.5,3.5 0 0 1 -3.5,-3.5 3.5,3.5 0 0 1 3.5,-3.5 3.5,3.5 0 0 1 3.5,3.5 z"
       style="" />
    <path
       id="circle288"
       d="m 156.5,265 a 3.5,3.5 0 0 1 -3.5,3.5 3.5,3.5 0 0 1 -3.5,-3.5 3.5,3.5 0 0 1 3.5,-3.5 3.5,3.5 0 0 1 3.5,3.5 z"
       style="" />
    <path
       id="circle290"
       d="m 186.5,293 a 3.5,3.5 0 0 1 -3.5,3.5 3.5,3.5 0 0 1 -3.5,-3.5 3.5,3.5 0 0 1 3.5,-3.5 3.5,3.5 0 0 1 3.5,3.5 z"
       style="" />
    <path
       id="circle292"
       d="m 215.5,195 a 3.5,3.5 0 0 1 -3.5,3.5 3.5,3.5 0 0 1 -3.5,-3.5 3.5,3.5 0 0 1 3.5,-3.5 3.5,3.5 0 0 1 3.5,3.5 z"
       style="" />
    <path
       id="circle294"
       d="m 245.5,187 a 3.5,3.5 0 0 1 -3.5,3.5 3.5,3.5 0 0 1 -3.5,-3.5 3.5,3.5 0 0 1 3.5,-3.5 3.5,3.5 0 0 1 3.5,3.5 z"
       style="" />
    <path
       id="circle296"
       d="m 274.5,230 a 3.5,3.5 0 0 1 -3.5,3.5 3.5,3.5 0 0 1 -3.5,-3.5 3.5,3.5 0 0 1 3.5,-3.5 3.5,3.5 0 0 1 3.5,3.5 z"
       style="" />
    <path
       id="circle298"
       d="m 303.5,268 a 3.5,3.5 0 0 1 -3.5,3.5 3.5,3.5 0 0 1 -3.5,-3.5 3.5,3.5 0 0 1 3.5,-3.5 3.5,3.5 0 0 1 3.5,3.5 z"
       style="" />
    <path
       id="circle300"
       d="m 333.5,259 a 3.5,3.5 0 0 1 -3.5,3.5 3.5,3.5 0 0 1 -3.5,-3.5 3.5,3.5 0 0 1 3.5,-3.5 3.5,3.5 0 0 1 3.5,3.5 z"
       style="" />
    <path
       id="circle302"
       d="m 362.5,380 a 3.5,3.5 0 0 1 -3.5,3.5 3.5,3.5 0 0 1 -3.5,-3.5 3.5,3.5 0 0 1 3.5,-3.5 3.5,3.5 0 0 1 3.5,3.5 z"
       style="" />
    <path
       id="circle304"
       d="m 392.5,375 a 3.5,3.5 0 0 1 -3.5,3.5 3.5,3.5 0 0 1 -3.5,-3.5 3.5,3.5 0 0 1 3.5,-3.5 3.5,3.5 0 0 1 3.5,3.5 z"
       style="" />
    <path
       id="circle306"
       d="m 421.5,365 a 3.5,3.5 0 0 1 -3.5,3.5 3.5,3.5 0 0 1 -3.5,-3.5 3.5,3.5 0 0 1 3.5,-3.5 3.5,3.5 0 0 1 3.5,3.5 z"
       style="" />
    <path
       id="circle308"
       d="m 451.5,354 a 3.5,3.5 0 0 1 -3.5,3.5 3.5,3.5 0 0 1 -3.5,-3.5 3.5,3.5 0 0 1 3.5,-3.5 3.5,3.5 0 0 1 3.5,3.5 z"
       style="" />
    <path
       id="circle310"
       d="m 480.5,396 a 3.5,3.5 0 0 1 -3.5,3.5 3.5,3.5 0 0 1 -3.5,-3.5 3.5,3.5 0 0 1 3.5,-3.5 3.5,3.5 0 0 1 3.5,3.5 z"
       style="" />
    <path
       id="circle312"
       d="m 510.5,396 a 3.5,3.5 0 0 1 -3.5,3.5 3.5,3.5 0 0 1 -3.5,-3.5 3.5,3.5 0 0 1 3.5,-3.5 3.5,3.5 0 0 1 3.5,3.5 z"
       style="" />
  </g>
  <path
     id="path314"
     stroke="#009966"
     fill="none"
     d="M94,100" />
  <path
     id="path316"
     stroke="#009966"
     fill="none"
     d="M94,107" />
  <path
     id="path318"
     stroke="#009966"
     fill="none"
     d="M271,238" />
  <path
     id="path320"
     stroke="#009966"
     fill="none"
     d="M271,245v 1" />
  <path
     id="path322"
     stroke="#009966"
     fill="none"
     d="M94,103l 30, 170l 29, -9l 30, 33l 29, -115l 30, 16l 29, 44l 29, 34l 30, -27l 29, 128l 30, -1l 29, -8l 30, -20l 29, 48h 30" />
  <g
     style="fill:#009966;stroke:#009966;stroke-width:1"
     id="g324">
    <path
       id="circle326"
       d="M 97.5,103 A 3.5,3.5 0 0 1 94,106.5 3.5,3.5 0 0 1 90.5,103 3.5,3.5 0 0 1 94,99.5 3.5,3.5 0 0 1 97.5,103 Z"
       style="" />
    <path
       id="circle328"
       d="m 127.5,273 a 3.5,3.5 0 0 1 -3.5,3.5 3.5,3.5 0 0 1 -3.5,-3.5 3.5,3.5 0 0 1 3.5,-3.5 3.5,3.5 0 0 1 3.5,3.5 z"
       style="" />
    <path
       id="circle330"
       d="m 156.5,264 a 3.5,3.5 0 0 1 -3.5,3.5 3.5,3.5 0 0 1 -3.5,-3.5 3.5,3.5 0 0 1 3.5,-3.5 3.5,3.5 0 0 1 3.5,3.5 z"
       style="" />
    <path
       id="circle332"
       d="m 186.5,297 a 3.5,3.5 0 0 1 -3.5,3.5 3.5,3.5 0 0 1 -3.5,-3.5 3.5,3.5 0 0 1 3.5,-3.5 3.5,3.5 0 0 1 3.5,3.5 z"
       style="" />
    <path
       id="circle334"
       d="m 215.5,182 a 3.5,3.5 0 0 1 -3.5,3.5 3.5,3.5 0 0 1 -3.5,-3.5 3.5,3.5 0 0 1 3.5,-3.5 3.5,3.5 0 0 1 3.5,3.5 z"
       style="" />
    <path
       id="circle336"
       d="m 245.5,198 a 3.5,3.5 0 0 1 -3.5,3.5 3.5,3.5 0 0 1 -3.5,-3.5 3.5,3.5 0 0 1 3.5,-3.5 3.5,3.5 0 0 1 3.5,3.5 z"
       style="" />
    <path
       id="circle338"
       d="m 274.5,242 a 3.5,3.5 0 0 1 -3.5,3.5 3.5,3.5 0 0 1 -3.5,-3.5 3.5,3.5 0 0 1 3.5,-3.5 3.5,3.5 0 0 1 3.5,3.5 z"
       style="" />
    <path
       id="circle340"
       d="m 303.5,276 a 3.5,3.5 0 0 1 -3.5,3.5 3.5,3.5 0 0 1 -3.5,-3.5 3.5,3.5 0 0 1 3.5,-3.5 3.5,3.5 0 0 1 3.5,3.5 z"
       style="" />
    <path
       id="circle342"
       d="m 333.5,249 a 3.5,3.5 0 0 1 -3.5,3.5 3.5,3.5 0 0 1 -3.5,-3.5 3.5,3.5 0 0 1 3.5,-3.5 3.5,3.5 0 0 1 3.5,3.5 z"
       style="" />
    <path
       id="circle344"
       d="m 362.5,377 a 3.5,3.5 0 0 1 -3.5,3.5 3.5,3.5 0 0 1 -3.5,-3.5 3.5,3.5 0 0 1 3.5,-3.5 3.5,3.5 0 0 1 3.5,3.5 z"
       style="" />
    <path
       id="circle346"
       d="m 392.5,376 a 3.5,3.5 0 0 1 -3.5,3.5 3.5,3.5 0 0 1 -3.5,-3.5 3.5,3.5 0 0 1 3.5,-3.5 3.5,3.5 0 0 1 3.5,3.5 z"
       style="" />
    <path
       id="circle348"
       d="m 421.5,368 a 3.5,3.5 0 0 1 -3.5,3.5 3.5,3.5 0 0 1 -3.5,-3.5 3.5,3.5 0 0 1 3.5,-3.5 3.5,3.5 0 0 1 3.5,3.5 z"
       style="" />
    <path
       id="circle350"
       d="m 451.5,348 a 3.5,3.5 0 0 1 -3.5,3.5 3.5,3.5 0 0 1 -3.5,-3.5 3.5,3.5 0 0 1 3.5,-3.5 3.5,3.5 0 0 1 3.5,3.5 z"
       style="" />
    <path
       id="circle352"
       d="m 480.5,396 a 3.5,3.5 0 0 1 -3.5,3.5 3.5,3.5 0 0 1 -3.5,-3.5 3.5,3.5 0 0 1 3.5,-3.5 3.5,3.5 0 0 1 3.5,3.5 z"
       style="" />
    <path
       id="circle354"
       d="m 510.5,396 a 3.5,3.5 0 0 1 -3.5,3.5 3.5,3.5 0 0 1 -3.5,-3.5 3.5,3.5 0 0 1 3.5,-3.5 3.5,3.5 0 0 1 3.5,3.5 z"
       style="" />
  </g>
  <g
     id="text356"
     style="font-weight:bold;font-size:20px;font-family:Helvetica;fill:#000000">
    <path
       id="path561"
       style="font-weight:bold;font-size:20px;font-family:Helvetica;fill:#000000"
       d="m 396.06,81 -5.04,-14.58 -3.32,0 -5.18,14.58 3.06,0 0.98,-2.94 5.46,0 0.96,2.94 3.08,0 z m -4.86,-5.44 -3.8,0 1.9,-5.7 1.9,5.7 z" />
  </g>
  <path
     id="path358"
     stroke="#666699"
     fill="none"
     d="M332,73h 42" />
  <g
     style="fill:#666699;stroke:#666699;stroke-width:1"
     id="g360">
    <path
       id="circle362"
       d="M 356.5,73 A 3.5,3.5 0 0 1 353,76.5 3.5,3.5 0 0 1 349.5,73 3.5,3.5 0 0 1 353,69.5 3.5,3.5 0 0 1 356.5,73 Z"
       style="" />
  </g>
  <g
     id="text364"
     style="font-weight:bold;font-size:20px;font-family:Helvetica;fill:#000000">
    <path
       id="path565"
       style="font-weight:bold;font-size:20px;font-family:Helvetica;fill:#000000"
       d="m 395.32,109.8 c 0,-1.44 -0.78,-2.58 -2.42,-3.54 1.44,-0.92 2,-1.76 2,-3 0,-2.06 -1.72,-3.84 -4.76,-3.84 l -6.5,0 0,14.58 6.56,0 c 3.4,0 5.12,-1.8 5.12,-4.2 z m -3.3,-6.22 c 0,1.06 -0.74,1.64 -2.12,1.64 l -3.26,0 0,-3.3 3.26,0 c 1.38,0 2.12,0.58 2.12,1.66 z m 0.42,6.04 c 0,1.22 -0.76,1.88 -2.22,1.88 l -3.58,0 0,-3.78 3.58,0 c 1.46,0 2.22,0.66 2.22,1.9 z" />
  </g>
  <path
     id="path366"
     stroke="#ff6600"
     fill="none"
     d="M332,107h 42" />
  <g
     style="fill:#ff6600;stroke:#ff6600;stroke-width:1"
     id="g368">
    <path
       id="circle370"
       d="m 356.5,107 a 3.5,3.5 0 0 1 -3.5,3.5 3.5,3.5 0 0 1 -3.5,-3.5 3.5,3.5 0 0 1 3.5,-3.5 3.5,3.5 0 0 1 3.5,3.5 z"
       style="" />
  </g>
  <g
     id="text372"
     style="font-weight:bold;font-size:20px;font-family:Helvetica;fill:#000000">
    <path
       id="path569"
       style="font-weight:bold;font-size:20px;font-family:Helvetica;fill:#000000"
       d="m 395.7,143.02 -2.92,0 c -0.18,1.86 -1.36,2.7 -3.22,2.7 -2.32,0 -3.68,-1.78 -3.68,-4.96 0,-3.22 1.42,-5.02 3.78,-5.02 1.62,0 2.68,0.74 3.12,2.62 l 2.86,0 c -0.26,-3.36 -2.8,-5.18 -6.08,-5.18 -4.12,0 -6.68,2.82 -6.68,7.54 0,4.68 2.54,7.52 6.6,7.52 3.62,0 6.04,-1.88 6.22,-5.22 z" />
  </g>
  <path
     id="path374"
     stroke="#009966"
     fill="none"
     d="M332,141h 42" />
  <g
     style="fill:#009966;stroke:#009966;stroke-width:1"
     id="g376">
    <path
       id="circle378"
       d="m 356.5,141 a 3.5,3.5 0 0 1 -3.5,3.5 3.5,3.5 0 0 1 -3.5,-3.5 3.5,3.5 0 0 1 3.5,-3.5 3.5,3.5 0 0 1 3.5,3.5 z"
       style="" />
  </g>
  <rect
     id="rect380"
     fill="white"
     height="38"
     width="322"
     y="-4"
     x="113" />
  <g
     id="text382"
     style="font-weight:bold;font-size:30px;font-family:Helvetica;fill:#000000">
    <path
       id="path573"
       style="font-weight:bold;font-size:30px;font-family:Helvetica;fill:#000000"
       d="m 145.39,26 0,-21.87 -4.5,0 0,21.87 4.5,0 z" />
    <path
       id="path575"
       style="font-weight:bold;font-size:30px;font-family:Helvetica;fill:#000000"
       d="m 168.65031,26 0,-11.76 -8.76,0 0,3.75 4.98,0 c -0.3,2.73 -2.88,4.53 -5.55,4.53 -3.63,0 -6.24,-3.03 -6.24,-7.53 0,-4.71 2.31,-7.38 6.12,-7.38 2.46,0 4.35,0.96 5.22,3.51 l 4.23,0 c -0.54,-4.5 -4.2,-7.35 -9.48,-7.35 -6.3,0 -10.59,4.47 -10.59,11.28 0,6.63 4.32,11.31 10.23,11.31 2.94,0 4.92,-1.05 6.6,-3.36 l 0.54,3 2.7,0 z" />
    <path
       id="path577"
       style="font-weight:bold;font-size:30px;font-family:Helvetica;fill:#000000"
       d="m 190.35062,26 0,-21.87 -4.5,0 0,8.19 -8.67,0 0,-8.19 -4.5,0 0,21.87 4.5,0 0,-9.93 8.67,0 0,9.93 4.5,0 z" />
    <path
       id="path579"
       style="font-weight:bold;font-size:30px;font-family:Helvetica;fill:#000000"
       d="m 206.90031,19.97 0,-15.84 -4.5,0 0,15.84 c 0,1.65 -0.87,2.55 -2.43,2.55 -1.71,0 -2.43,-0.84 -2.43,-2.85 l 0,-1.77 -4.5,0 0,1.83 c 0,4.35 2.76,6.63 6.84,6.63 4.47,0 7.02,-2.31 7.02,-6.39 z" />
    <path
       id="path581"
       style="font-weight:bold;font-size:30px;font-family:Helvetica;fill:#000000"
       d="m 224.67953,21.29 0,-3.48 -2.22,0 0,-13.08 -4.95,0 -7.77,13.02 0,3.54 8.52,0 0,4.71 4.2,0 0,-4.71 2.22,0 z m -6.42,-3.48 -5.55,0 5.55,-9.09 0,9.09 z" />
    <path
       id="path583"
       style="font-weight:bold;font-size:30px;font-family:Helvetica;fill:#000000"
       d="m 236.42875,8.63 -0.66,-2.1 -3.27,1.08 0,-3.48 -2.16,0 0,3.48 -3.27,-1.08 -0.66,2.07 3.27,1.08 -2.01,2.82 1.74,1.29 2.01,-2.82 2.01,2.82 1.74,-1.29 -2.01,-2.82 3.27,-1.05 z" />
    <path
       id="path585"
       style="font-weight:bold;font-size:30px;font-family:Helvetica;fill:#000000"
       d="m 252.88891,15.41 c 0,-6.03 -1.08,-11.13 -7.32,-11.13 -6.09,0 -7.32,4.89 -7.32,11.01 0,5.94 1.17,10.98 7.32,10.98 4.32,0 7.32,-2.46 7.32,-10.86 z m -4.2,-0.09 c 0,5.97 -0.87,7.35 -3.12,7.35 -2.13,0 -3.12,-1.08 -3.12,-7.41 0,-6.18 0.87,-7.59 3.12,-7.59 2.07,0 3.12,1.05 3.12,7.65 z" />
    <path
       id="path587"
       style="font-weight:bold;font-size:30px;font-family:Helvetica;fill:#000000"
       d="m 269.52812,11.03 c 0,-4.11 -2.82,-6.75 -7.28999,-6.75 -4.41001,0 -6.99001,2.61 -6.99001,7.11 0,0.18 0,0.42 0.03,0.75 l 4.02001,0 0,-0.69 c 0,-2.37 1.10999,-3.75 3.02999,-3.75 1.86001,0 3,1.29 3,3.42 0,2.34 -0.75,3.27 -5.43,6.6 -3.59999,2.46 -4.70999,4.35 -4.92,8.28 l 14.46001,0 0,-3.75 -9,0 c 0.53999,-1.14 1.19999,-1.74 4.31999,-4.02 3.69,-2.7 4.77,-4.32 4.77,-7.2 z" />
    <path
       id="path589"
       style="font-weight:bold;font-size:30px;font-family:Helvetica;fill:#000000"
       d="m 288.03766,19.79 0,-4.05 -8.16,0 0,4.05 8.16,0 z" />
    <path
       id="path591"
       style="font-weight:bold;font-size:30px;font-family:Helvetica;fill:#000000"
       d="m 298.05719,19.79 0,-4.05 -8.16,0 0,4.05 8.16,0 z" />
    <path
       id="path593"
       style="font-weight:bold;font-size:30px;font-family:Helvetica;fill:#000000"
       d="m 322.03703,19.97 0,-15.84 -4.5,0 0,15.84 c 0,1.65 -0.87,2.55 -2.43,2.55 -1.71,0 -2.43,-0.84 -2.43,-2.85 l 0,-1.77 -4.5,0 0,1.83 c 0,4.35 2.76,6.63 6.84,6.63 4.47,0 7.02,-2.31 7.02,-6.39 z" />
    <path
       id="path595"
       style="font-weight:bold;font-size:30px;font-family:Helvetica;fill:#000000"
       d="m 347.98656,18.77 c 0,-4.35 -2.7,-7.14 -6.63,-7.14 -1.41,0 -2.46,0.36 -3.69,1.29 l 0.69,-4.44 8.79,0 0,-3.75 -11.37,0 -1.89,11.85 3.78,0 c 0.45,-1.05 1.41,-1.62 2.7,-1.62 2.13,0 3.42,1.32 3.42,3.9 0,2.49 -1.32,3.81 -3.42,3.81 -1.83,0 -2.94,-0.93 -2.94,-2.64 l -4.14,0 c 0,3.72 2.88,6.24 7.02,6.24 4.56,0 7.68,-2.91 7.68,-7.5 z" />
    <path
       id="path597"
       style="font-weight:bold;font-size:30px;font-family:Helvetica;fill:#000000"
       d="m 354.81578,8.03 0,-3.9 -4.14,0 0,3.9 1.2,3.87 1.68,0 1.26,-3.87 z" />
    <path
       id="path599"
       style="font-weight:bold;font-size:30px;font-family:Helvetica;fill:#000000"
       d="m 380.99453,26 0,-21.87 -4.2,0 0,7.77 c -1.05,-1.62 -2.46,-2.37 -4.47,-2.37 -3.87,0 -6.81,3.51 -6.81,8.4 0,4.59 2.52,8.34 6.81,8.34 2.01,0 3.42,-0.75 4.47,-2.13 l 0,1.86 4.2,0 z m -4.2,-8.01 c 0,2.94 -1.44,4.77 -3.54,4.77 -2.1,0 -3.54,-1.86 -3.54,-4.83 0,-3 1.44,-4.89 3.54,-4.89 2.13,0 3.54,1.86 3.54,4.95 z" />
    <path
       id="path601"
       style="font-weight:bold;font-size:30px;font-family:Helvetica;fill:#000000"
       d="m 398.73437,18.5 c 0,-5.58 -2.82,-8.97 -7.58999,-8.97 -4.65001,0 -7.5,3.15 -7.5,8.58 0,5.19 2.82,8.16 7.40999,8.16 3.63,0 6.57,-1.65 7.5,-4.83 l -4.14,0 c -0.36,1.17 -1.68,1.62 -3.20999,1.62 -1.98001,0 -3.24,-0.9 -3.36,-4.05 l 10.86,0 0.03,-0.51 z m -4.38,-2.28 -6.44999,0 c 0.26999,-2.25 1.31999,-3.48 3.18,-3.48 1.79999,0 3.06,1.17 3.26999,3.48 z" />
    <path
       id="path603"
       style="font-weight:bold;font-size:30px;font-family:Helvetica;fill:#000000"
       d="m 405.89359,26 0,-21.87 -4.2,0 0,21.87 4.2,0 z" />
    <path
       id="path605"
       style="font-weight:bold;font-size:30px;font-family:Helvetica;fill:#000000"
       d="m 423.75391,18.5 c 0,-5.58 -2.82,-8.97 -7.59,-8.97 -4.65,0 -7.5,3.15 -7.5,8.58 0,5.19 2.82,8.16 7.41,8.16 3.63,0 6.57,-1.65 7.5,-4.83 l -4.14,0 c -0.36,1.17 -1.68,1.62 -3.21,1.62 -1.98,0 -3.24,-0.9 -3.36,-4.05 l 10.86,0 0.03,-0.51 z m -4.38,-2.28 -6.45,0 c 0.27,-2.25 1.32,-3.48 3.18,-3.48 1.8,0 3.06,1.17 3.27,3.48 z" />
    <path
       id="path607"
       style="font-weight:bold;font-size:30px;font-family:Helvetica;fill:#000000"
       d="m 433.55734,26 0,-2.94 c -0.42,0.06 -0.66,0.09 -0.96,0.09 -1.11,0 -1.38,-0.33 -1.38,-1.77 l 0,-8.46 2.34,0 0,-2.79 -2.34,0 0,-4.35 -4.2,0 0,4.35 -2.07,0 0,2.79 2.07,0 0,9.6 c 0,2.55 1.35,3.6 4.11,3.6 0.93,0 1.68,-0.09 2.43,-0.12 z" />
    <path
       id="path609"
       style="font-weight:bold;font-size:30px;font-family:Helvetica;fill:#000000"
       d="m 440.75687,26 0,-16.2 -4.2,0 0,16.2 4.2,0 z m 0.06,-18.15 0,-4.2 -4.2,0 0,4.2 4.2,0 z" />
    <path
       id="path611"
       style="font-weight:bold;font-size:30px;font-family:Helvetica;fill:#000000"
       d="m 459.93719,18.02 c 0,-5.49 -2.97,-8.49 -8.04,-8.49 -4.95,0 -7.98,3.06 -7.98,8.37 0,5.34 3.03,8.37 8.01,8.37 4.92,0 8.01,-3.06 8.01,-8.25 z m -4.2,-0.06 c 0,3.03 -1.56,4.92 -3.81,4.92 -2.28,0 -3.81,-1.89 -3.81,-4.98 0,-3.09 1.53,-4.98 3.81,-4.98 2.31,0 3.81,1.86 3.81,5.04 z" />
    <path
       id="path613"
       style="font-weight:bold;font-size:30px;font-family:Helvetica;fill:#000000"
       d="m 477.58703,26 0,-10.86 c 0,-3.57 -1.98,-5.61 -5.43,-5.61 -2.19,0 -3.66,0.81 -4.86,2.61 l 0,-2.34 -4.2,0 0,16.2 4.2,0 0,-9.72 c 0,-1.92 1.35,-3.18 3.39,-3.18 1.8,0 2.7,0.99 2.7,2.91 l 0,9.99 4.2,0 z" />
  </g>
</svg>
